<?xml version="1.0" encoding="UTF-8"?>
<svg width="800" height="800" viewBox="0 0 800 800" fill="none" xmlns="http://www.w3.org/2000/svg" xmlns:xlink="http://www.w3.org/1999/xlink">
    <circle cx="400" cy="400" r="400" fill="#00AD4A"/>
    <path fill-rule="evenodd" clip-rule="evenodd" d="M500 200C490 195 475 205 475 205C475 205 480 180 480 180C480 180 485 170 485 165C485 160 480 150 475 150C470 150 460 150 455 155C450 160 450 180 450 185C450 190 450 190 455 190C460 190 465 195 465 200C465 205 460 210 460 210C465 215 470 220 475 220C480 220 485 225 490 225C500 225 500 220 505 215C510 210 515 210 520 205C525 200 525 195 525 190C520 185 510 190 500 200ZM400 300C395 295 385 290 375 290C365 290 355 295 350 300C345 305 340 310 340 320C340 330 340 340 350 350C360 360 370 365 375 370C380 375 390 375 400 370C410 365 420 360 430 350C435 340 435 330 435 320C435 310 430 305 425 300C420 295 405 300 400 300ZM450 400C445 395 435 390 425 390C415 390 405 395 400 400C395 405 390 410 390 420C390 430 390 440 400 450C410 460 420 465 425 470C430 475 440 475 450 470C460 465 470 460 480 450C485 440 485 430 485 420C485 410 480 405 475 400C470 395 455 400 450 400Z" fill="#FFFFFF"/>
    <text x="400" y="780" font-family="Arial" font-size="64" fill="#FFFFFF" text-anchor="middle">Kim Golfer</text>
</svg>
